<mxfile host="app.diagrams.net" modified="2020-10-28T02:14:41.580Z" agent="5.0 (Windows NT 6.1; Win64; x64) AppleWebKit/537.36 (KHTML, like Gecko) Chrome/83.0.4103.116 Safari/537.36" etag="-EKkpwQiKk1bEwDrCLtG" version="13.8.3" type="github">
  <diagram id="u5egj9Q1XMa9EqDsLZzm" name="Page-1">
    <mxGraphModel dx="1950" dy="1722" grid="1" gridSize="10" guides="1" tooltips="1" connect="1" arrows="1" fold="1" page="1" pageScale="1" pageWidth="850" pageHeight="1100" math="0" shadow="0">
      <root>
        <mxCell id="0" />
        <mxCell id="1" parent="0" />
        <mxCell id="iNh4lFPZa8ypUP3hIFsf-30" value="Extends" style="endArrow=block;endSize=16;endFill=0;html=1;" parent="1" source="iNh4lFPZa8ypUP3hIFsf-13" target="iNh4lFPZa8ypUP3hIFsf-1" edge="1">
          <mxGeometry width="160" relative="1" as="geometry">
            <mxPoint x="397" y="320" as="sourcePoint" />
            <mxPoint x="330" y="175.9230769230769" as="targetPoint" />
          </mxGeometry>
        </mxCell>
        <mxCell id="iNh4lFPZa8ypUP3hIFsf-5" value="drumSet" style="swimlane;fontStyle=1;align=center;verticalAlign=top;childLayout=stackLayout;horizontal=1;startSize=26;horizontalStack=0;resizeParent=1;resizeParentMax=0;resizeLast=0;collapsible=1;marginBottom=0;fillColor=#e1d5e7;strokeColor=#9673a6;" parent="1" vertex="1">
          <mxGeometry x="40" y="310" width="160" height="150" as="geometry" />
        </mxCell>
        <mxCell id="iNh4lFPZa8ypUP3hIFsf-6" value="- int numberOfDrums&#xa;- int numberOfCymbals" style="text;strokeColor=none;fillColor=none;align=left;verticalAlign=top;spacingLeft=4;spacingRight=4;overflow=hidden;rotatable=0;points=[[0,0.5],[1,0.5]];portConstraint=eastwest;" parent="iNh4lFPZa8ypUP3hIFsf-5" vertex="1">
          <mxGeometry y="26" width="160" height="44" as="geometry" />
        </mxCell>
        <mxCell id="iNh4lFPZa8ypUP3hIFsf-7" value="" style="line;strokeWidth=1;fillColor=none;align=left;verticalAlign=middle;spacingTop=-1;spacingLeft=3;spacingRight=3;rotatable=0;labelPosition=right;points=[];portConstraint=eastwest;" parent="iNh4lFPZa8ypUP3hIFsf-5" vertex="1">
          <mxGeometry y="70" width="160" height="8" as="geometry" />
        </mxCell>
        <mxCell id="iNh4lFPZa8ypUP3hIFsf-8" value="+ method(): type&#xa;+ getNumberOfDrums();&#xa;+ getNumberofCymbals();&#xa;+ showDrumSet();" style="text;strokeColor=none;fillColor=none;align=left;verticalAlign=top;spacingLeft=4;spacingRight=4;overflow=hidden;rotatable=0;points=[[0,0.5],[1,0.5]];portConstraint=eastwest;" parent="iNh4lFPZa8ypUP3hIFsf-5" vertex="1">
          <mxGeometry y="78" width="160" height="72" as="geometry" />
        </mxCell>
        <mxCell id="iNh4lFPZa8ypUP3hIFsf-31" value="Extends" style="endArrow=block;endSize=16;endFill=0;html=1;exitX=0.5;exitY=0;exitDx=0;exitDy=0;" parent="1" source="iNh4lFPZa8ypUP3hIFsf-17" target="iNh4lFPZa8ypUP3hIFsf-1" edge="1">
          <mxGeometry width="160" relative="1" as="geometry">
            <mxPoint x="336.0799999999999" y="313.98" as="sourcePoint" />
            <mxPoint x="340" y="185.9230769230769" as="targetPoint" />
          </mxGeometry>
        </mxCell>
        <mxCell id="iNh4lFPZa8ypUP3hIFsf-33" value="public class drumSet extends musicalInstrument" style="text;html=1;strokeColor=none;fillColor=none;align=center;verticalAlign=middle;whiteSpace=wrap;rounded=0;" parent="1" vertex="1">
          <mxGeometry x="-20" y="470" width="280" height="20" as="geometry" />
        </mxCell>
        <mxCell id="iNh4lFPZa8ypUP3hIFsf-17" value="electricPiano" style="swimlane;fontStyle=1;align=center;verticalAlign=top;childLayout=stackLayout;horizontal=1;startSize=26;horizontalStack=0;resizeParent=1;resizeParentMax=0;resizeLast=0;collapsible=1;marginBottom=0;fillColor=#e1d5e7;strokeColor=#9673a6;" parent="1" vertex="1">
          <mxGeometry x="590" y="310" width="160" height="120" as="geometry" />
        </mxCell>
        <mxCell id="iNh4lFPZa8ypUP3hIFsf-18" value="- int numberOfKeys" style="text;strokeColor=none;fillColor=none;align=left;verticalAlign=top;spacingLeft=4;spacingRight=4;overflow=hidden;rotatable=0;points=[[0,0.5],[1,0.5]];portConstraint=eastwest;" parent="iNh4lFPZa8ypUP3hIFsf-17" vertex="1">
          <mxGeometry y="26" width="160" height="26" as="geometry" />
        </mxCell>
        <mxCell id="iNh4lFPZa8ypUP3hIFsf-19" value="" style="line;strokeWidth=1;fillColor=none;align=left;verticalAlign=middle;spacingTop=-1;spacingLeft=3;spacingRight=3;rotatable=0;labelPosition=right;points=[];portConstraint=eastwest;" parent="iNh4lFPZa8ypUP3hIFsf-17" vertex="1">
          <mxGeometry y="52" width="160" height="8" as="geometry" />
        </mxCell>
        <mxCell id="iNh4lFPZa8ypUP3hIFsf-20" value="+ method(): type&#xa;+ getNumberOfKeys();&#xa;+ showElectricPiano();" style="text;strokeColor=none;fillColor=none;align=left;verticalAlign=top;spacingLeft=4;spacingRight=4;overflow=hidden;rotatable=0;points=[[0,0.5],[1,0.5]];portConstraint=eastwest;" parent="iNh4lFPZa8ypUP3hIFsf-17" vertex="1">
          <mxGeometry y="60" width="160" height="60" as="geometry" />
        </mxCell>
        <mxCell id="iNh4lFPZa8ypUP3hIFsf-13" value="electricGuitar" style="swimlane;fontStyle=1;align=center;verticalAlign=top;childLayout=stackLayout;horizontal=1;startSize=26;horizontalStack=0;resizeParent=1;resizeParentMax=0;resizeLast=0;collapsible=1;marginBottom=0;fillColor=#e1d5e7;strokeColor=#9673a6;" parent="1" vertex="1">
          <mxGeometry x="310" y="310" width="160" height="120" as="geometry" />
        </mxCell>
        <mxCell id="iNh4lFPZa8ypUP3hIFsf-14" value="- int numberOfStrings" style="text;strokeColor=none;fillColor=none;align=left;verticalAlign=top;spacingLeft=4;spacingRight=4;overflow=hidden;rotatable=0;points=[[0,0.5],[1,0.5]];portConstraint=eastwest;" parent="iNh4lFPZa8ypUP3hIFsf-13" vertex="1">
          <mxGeometry y="26" width="160" height="26" as="geometry" />
        </mxCell>
        <mxCell id="iNh4lFPZa8ypUP3hIFsf-15" value="" style="line;strokeWidth=1;fillColor=none;align=left;verticalAlign=middle;spacingTop=-1;spacingLeft=3;spacingRight=3;rotatable=0;labelPosition=right;points=[];portConstraint=eastwest;" parent="iNh4lFPZa8ypUP3hIFsf-13" vertex="1">
          <mxGeometry y="52" width="160" height="8" as="geometry" />
        </mxCell>
        <mxCell id="iNh4lFPZa8ypUP3hIFsf-16" value="+ method(): type&#xa;+ getNumberOfStrings();&#xa;+ showElectricGuitar();" style="text;strokeColor=none;fillColor=none;align=left;verticalAlign=top;spacingLeft=4;spacingRight=4;overflow=hidden;rotatable=0;points=[[0,0.5],[1,0.5]];portConstraint=eastwest;" parent="iNh4lFPZa8ypUP3hIFsf-13" vertex="1">
          <mxGeometry y="60" width="160" height="60" as="geometry" />
        </mxCell>
        <mxCell id="iNh4lFPZa8ypUP3hIFsf-29" value="Extends" style="endArrow=block;endSize=16;endFill=0;html=1;exitX=0.5;exitY=0;exitDx=0;exitDy=0;" parent="1" source="iNh4lFPZa8ypUP3hIFsf-5" target="iNh4lFPZa8ypUP3hIFsf-1" edge="1">
          <mxGeometry width="160" relative="1" as="geometry">
            <mxPoint x="140" y="320" as="sourcePoint" />
            <mxPoint x="300" y="320" as="targetPoint" />
          </mxGeometry>
        </mxCell>
        <mxCell id="iNh4lFPZa8ypUP3hIFsf-1" value="musicalInstrument" style="swimlane;fontStyle=1;align=center;verticalAlign=top;childLayout=stackLayout;horizontal=1;startSize=26;horizontalStack=0;resizeParent=1;resizeParentMax=0;resizeLast=0;collapsible=1;marginBottom=0;fillColor=#d5e8d4;strokeColor=#82b366;" parent="1" vertex="1">
          <mxGeometry x="290" y="-60" width="210" height="210" as="geometry" />
        </mxCell>
        <mxCell id="iNh4lFPZa8ypUP3hIFsf-2" value="-brand&#xa;-model&#xa;-playing implement" style="text;strokeColor=none;fillColor=none;align=left;verticalAlign=top;spacingLeft=4;spacingRight=4;overflow=hidden;rotatable=0;points=[[0,0.5],[1,0.5]];portConstraint=eastwest;" parent="iNh4lFPZa8ypUP3hIFsf-1" vertex="1">
          <mxGeometry y="26" width="210" height="54" as="geometry" />
        </mxCell>
        <mxCell id="iNh4lFPZa8ypUP3hIFsf-3" value="" style="line;strokeWidth=1;fillColor=none;align=left;verticalAlign=middle;spacingTop=-1;spacingLeft=3;spacingRight=3;rotatable=0;labelPosition=right;points=[];portConstraint=eastwest;" parent="iNh4lFPZa8ypUP3hIFsf-1" vertex="1">
          <mxGeometry y="80" width="210" height="8" as="geometry" />
        </mxCell>
        <mxCell id="iNh4lFPZa8ypUP3hIFsf-4" value="+musicalInstrument(); Constructor&#xa;+getBrand(); String&#xa;+getModel(); String&#xa;+getImplement(); String&#xa;+isAmplified(); boolean&#xa;+isPItched(); boolean&#xa;+hasMIDI(); boolean" style="text;strokeColor=none;fillColor=none;align=left;verticalAlign=top;spacingLeft=4;spacingRight=4;overflow=hidden;rotatable=0;points=[[0,0.5],[1,0.5]];portConstraint=eastwest;" parent="iNh4lFPZa8ypUP3hIFsf-1" vertex="1">
          <mxGeometry y="88" width="210" height="122" as="geometry" />
        </mxCell>
        <mxCell id="9qWsobVjSM98d00uHxSe-1" value="«interface»&lt;br&gt;&lt;b&gt;SellableProduct&lt;/b&gt;" style="html=1;" vertex="1" parent="1">
          <mxGeometry x="80" y="-200" width="110" height="60" as="geometry" />
        </mxCell>
        <mxCell id="9qWsobVjSM98d00uHxSe-2" value="«interface»&lt;br&gt;&lt;b&gt;AudioDevice&lt;/b&gt;" style="html=1;" vertex="1" parent="1">
          <mxGeometry x="610" y="-200" width="110" height="50" as="geometry" />
        </mxCell>
        <mxCell id="9qWsobVjSM98d00uHxSe-3" value="+ int costOfProduct" style="text;strokeColor=none;fillColor=none;align=left;verticalAlign=top;spacingLeft=4;spacingRight=4;overflow=hidden;rotatable=0;points=[[0,0.5],[1,0.5]];portConstraint=eastwest;" vertex="1" parent="1">
          <mxGeometry x="80" y="-140" width="120" height="26" as="geometry" />
        </mxCell>
        <mxCell id="9qWsobVjSM98d00uHxSe-4" value="+ boolean: createsSound" style="text;strokeColor=none;fillColor=none;align=left;verticalAlign=top;spacingLeft=4;spacingRight=4;overflow=hidden;rotatable=0;points=[[0,0.5],[1,0.5]];portConstraint=eastwest;" vertex="1" parent="1">
          <mxGeometry x="610" y="-150" width="150" height="26" as="geometry" />
        </mxCell>
        <mxCell id="9qWsobVjSM98d00uHxSe-7" value="Extends" style="endArrow=block;endSize=16;endFill=0;html=1;entryX=-0.055;entryY=0.038;entryDx=0;entryDy=0;entryPerimeter=0;" edge="1" parent="1" target="9qWsobVjSM98d00uHxSe-4">
          <mxGeometry width="160" relative="1" as="geometry">
            <mxPoint x="500.00307692307666" y="-57" as="sourcePoint" />
            <mxPoint x="502.46461538461523" y="-217" as="targetPoint" />
          </mxGeometry>
        </mxCell>
        <mxCell id="9qWsobVjSM98d00uHxSe-8" value="Extends" style="endArrow=block;endSize=16;endFill=0;html=1;entryX=1.038;entryY=-0.038;entryDx=0;entryDy=0;entryPerimeter=0;" edge="1" parent="1" target="9qWsobVjSM98d00uHxSe-3">
          <mxGeometry width="160" relative="1" as="geometry">
            <mxPoint x="290.00307692307666" y="-57" as="sourcePoint" />
            <mxPoint x="292.46461538461523" y="-217" as="targetPoint" />
          </mxGeometry>
        </mxCell>
        <mxCell id="9qWsobVjSM98d00uHxSe-10" value="The added interfaces add more to the hierarchy of musicalInstrument. The SellableProduct interface adds a price onto musicalInstrument and AudioDevice adds a boolean to check for sound." style="text;html=1;fillColor=none;align=center;verticalAlign=middle;whiteSpace=wrap;rounded=0;strokeColor=#000000;" vertex="1" parent="1">
          <mxGeometry width="210" height="110" as="geometry" />
        </mxCell>
      </root>
    </mxGraphModel>
  </diagram>
</mxfile>
